<?xml version="1.0" encoding="UTF-8"?><svg id="Capa_2" xmlns="http://www.w3.org/2000/svg" viewBox="0 0 150.32 131.63"><defs><style>.cls-1{fill:#35b7fd;}.cls-1,.cls-2{stroke-width:0px;}.cls-2{fill:#ffffff;}</style></defs><g id="Capa_1-2"><path class="cls-2" d="M123.65,96.26c-1.91-7.88-5.4-13.27-11.14-15.3v-.34c7.88-2.7,14.29-9.34,14.29-19.24,0-5.96-2.25-11.14-5.96-14.4-4.73-4.28-11.59-6.3-22.05-6.3-6.64,0-13.84.68-18.79,1.69v51.93c.99,2.42,7.09,20.17,8.35,23.08h1.44v-33.17h9.23c8.89.34,13.05,4.28,15.3,14.74,2.02,9.45,3.71,15.86,4.95,18.11h10.12c-1.46-2.92-3.26-10.24-5.74-20.81ZM99.8,76.79h-10.01v-27.56c1.69-.45,4.95-.9,9.68-.9,10.35,0,17.44,4.27,17.44,14.06,0,8.66-6.64,14.4-17.1,14.4Z"/><path class="cls-1" d="M57.77,42.06h-11.81l-25.76,75.82h10.12l7.88-23.85h4.62l1.74-7.65h-4.34l7.42-21.94c1.46-4.61,2.7-9.34,3.71-13.72h.34c1.13,4.39,2.25,8.89,3.82,13.84l7.54,21.82h-4.59s0,0,0,0h-1.22s2.55,7.64,2.55,7.64h1.63s0,0,0,0h3.66l8.1,23.85h10.46l-25.87-75.82Z"/><path class="cls-2" d="M150.32,131.63H0V0h150.32v131.63ZM4.69,126.94h140.95V4.69H4.69v122.25Z"/></g></svg>